<svg width="73" height="45" viewBox="0 0 73 45" fill="none" xmlns="http://www.w3.org/2000/svg">
<g opacity="0.9">
<path d="M24.253 42.8808C24.3378 42.911 24.4286 42.9413 24.5194 42.9776C25.1612 43.1956 25.9605 43.4439 26.572 43.6316C27.2078 43.8132 28.0615 44.013 28.7033 44.1644C20.3537 42.1239 13.2271 37.5525 7.52948 30.5652L9.13402 32.5451C9.33383 32.7691 9.50942 32.969 9.67895 33.1506C10.2723 33.7682 10.9747 34.4827 11.6892 35.1729C12.1312 35.5786 12.6822 36.063 13.4451 36.7411C13.8386 37.056 14.2988 37.4072 14.7711 37.7583C18.8218 40.7434 21.5889 41.8454 24.259 42.8868L24.253 42.8808Z" fill="#262626"/>
<path d="M2.76412 22.0522C9.40024 37.7222 26.0208 43.7225 31.894 44.7095C31.9243 44.7095 31.9485 44.7155 31.9788 44.7216C32.2876 44.7579 32.6751 44.8003 32.9778 44.8306L33.5954 44.8851C33.5954 44.8851 33.6197 44.8851 33.6257 44.8851C30.1623 44.5642 6.34254 37.5345 0.977936 15.9126C1.03848 16.2335 1.09298 16.5484 1.15353 16.839C1.55315 18.3466 2.16469 20.3205 2.67935 21.8221C2.70962 21.9009 2.7399 21.9735 2.76412 22.0522Z" fill="#262626"/>
<path d="M35.7085 44.9941C35.8477 44.9941 35.981 45.0002 36.1202 45.0002H36.1808C36.1808 45.0002 36.2292 45.0002 36.2474 45.0002C36.4048 45.0002 36.5562 45.0002 36.7136 45.0002C36.8468 45.0002 36.98 45.0002 37.095 45.0002C37.1011 45.0002 37.1072 45.0002 37.1132 45.0002C34.3643 44.9517 -4.96803 30.0447 1.38957 -0.241699C1.38957 -0.241699 1.38957 -0.241712 1.38957 -0.235657C1.17159 0.618078 0.959674 1.76851 0.778029 2.6283C0.602438 3.73028 0.457121 5.21372 0.336024 6.32176C-0.311845 33.4899 32.1119 44.649 35.7085 44.9941Z" fill="#262626"/>
<path d="M4.92598 -8.99722C-11.0528 21.8099 33.7047 43.5589 39.0572 44.9092C39.0935 44.9092 39.1299 44.9092 39.1662 44.9031L39.4023 44.885C39.4386 44.885 39.475 44.8789 39.5174 44.8728C39.7898 44.8486 40.1168 44.8123 40.3953 44.7881C40.4316 44.7881 40.468 44.782 40.4982 44.776C34.1588 39.9563 26.4449 37.3285 20.3356 32.1455C17.3445 29.6085 10.339 23.6687 6.24594 15.7248C-1.94628 -0.169227 5.34376 -10.3051 8.92218 -14.6646C8.79503 -14.5192 8.67393 -14.3739 8.55284 -14.2347L7.94735 -13.5141C7.00279 -12.2123 5.80999 -10.4262 4.95625 -9.05171C4.94414 -9.03354 4.93809 -9.01538 4.92598 -8.99722Z" fill="#262626"/>
<path d="M28.1462 -26.4353C28.1462 -26.4353 28.1886 -26.4474 28.2128 -26.4534C28.1583 -26.4413 28.0917 -26.4292 28.0433 -26.4171C27.6437 -26.3263 27.1229 -26.187 26.7294 -26.078C25.918 -25.854 24.8463 -25.521 24.0592 -25.2243C23.5748 -25.0427 22.933 -24.8005 22.4607 -24.6007C21.8915 -24.3585 21.1468 -24.0073 20.5837 -23.7469C20.0085 -23.4805 19.2637 -23.0869 18.7188 -22.766C18.077 -22.3906 17.2838 -21.9002 16.5814 -21.4461C9.34588 -16.469 3.63615 -8.48264 4.42329 0.520926C6.28818 21.7614 30.3441 36.3293 39.3961 41.815C41.4871 43.0825 42.5931 43.9625 42.7142 44.4549C42.7142 44.4549 42.7566 44.4489 42.7747 44.4428C43.2712 44.352 43.8949 44.2188 44.3914 44.1159C44.4095 44.1159 44.4277 44.1098 44.4459 44.1038C44.6215 44.0432 44.7486 43.7889 44.8697 43.6436C44.458 42.8504 43.6527 42.2813 39.2992 39.4294C28.0978 32.0909 16.8236 23.6505 10.242 11.6921C-4.61056 -15.3065 24.1924 -29.275 36.5322 -25.9872C34.1405 -26.9136 31.2281 -27.0166 28.1523 -26.4413L28.1462 -26.4353Z" fill="#262626"/>
<path d="M40.6674 36.4142C47.4851 41.2338 49.1078 42.3782 46.9523 43.4439C46.9765 43.4378 47.0007 43.4318 47.0189 43.4257C47.3519 43.3228 47.7273 43.1956 48.0967 43.0745C48.351 42.9898 48.5992 42.8989 48.8475 42.8081C51.8991 41.3913 49.241 39.4295 42.8834 34.7491C35.8537 29.5722 27.0984 23.1298 19.6752 13.7085C-2.2434 -14.1075 21.1526 -27.8763 36.5198 -25.9811C19.0576 -29.7654 -18.5188 -5.40064 40.6613 36.4142H40.6674Z" fill="#262626"/>
<path d="M44.6758 31.001C52.6258 37.0983 55.6048 39.3809 51.6571 41.6575C51.6873 41.6454 51.7176 41.6273 51.7479 41.6152C52.4079 41.3003 53.2313 40.8644 53.8671 40.5435C56.9429 38.7452 55.7138 36.6562 53.9276 34.6703C46.4499 26.3569 36.5199 20.847 28.8605 12.7396C4.21122 -13.3568 20.747 -26.3385 36.526 -25.9752C20.4443 -27.4404 -8.26784 -9.59074 44.6758 31.0071V31.001Z" fill="#262626"/>
<path d="M50.8215 25.9577C58.3961 32.0246 61.0966 35.2882 57.0519 38.57C57.7422 38.0856 58.6201 37.3953 59.3104 36.8685C59.6555 36.5839 60.0188 36.2752 60.3639 35.9664C63.5064 33.0903 61.7444 31.5342 40.6009 12.9095C9.9512 -14.0831 23.7623 -23.6134 33.7528 -25.6055C24.6948 -23.9162 -0.566076 -15.2153 50.8215 25.9577Z" fill="#262626"/>
<path d="M49.4106 14.078C61.9744 24.1896 66.6912 28.8155 62.6041 33.841C62.6344 33.8108 62.6586 33.7866 62.6828 33.7563C63.3247 33.066 64.0997 32.1518 64.7052 31.4554C64.7173 31.4373 64.7294 31.4252 64.7415 31.407C68.3199 26.7205 64.8989 21.7858 50.1493 10.324C11.6646 -19.5749 32.0513 -25.1574 36.5319 -25.9749C33.2684 -25.5631 5.90647 -20.9312 49.4167 14.078H49.4106Z" fill="#262626"/>
<path d="M52.0083 5.98853C66.2251 16.6087 70.1365 22.04 67.4784 27.4712C67.5874 27.2895 67.6903 27.1139 67.7933 26.9383L67.8902 26.7688C67.9628 26.6416 68.0294 26.5266 68.096 26.4116L68.9074 24.8494C69.0042 24.6496 69.1011 24.4498 69.198 24.256C72.3708 16.9781 60.3458 8.22277 52.3655 2.41617C26.3599 -16.5053 29.3994 -23.4623 36.526 -25.969C30.4409 -24.3826 19.7601 -18.0856 52.0083 6.00065V5.98853Z" fill="#262626"/>
<path d="M52.6983 -2.25829C65.1107 6.48492 72.5461 12.3339 71.0021 19.63C71.0748 19.3818 71.1535 19.1335 71.2201 18.8913C71.4683 17.9831 71.7166 16.9598 71.9164 16.1424C72.9821 8.87054 65.474 3.3243 53.1403 -5.11012C44.9905 -10.6866 29.8231 -21.0647 36.5258 -25.9812C26.0145 -21.0586 46.0985 -6.90841 52.6983 -2.25829Z" fill="#262626"/>
<path d="M53.6131 -8.68825C67.5998 0.387976 72.3528 4.50529 72.6071 10.7539C72.6132 10.6328 72.6253 10.5056 72.6314 10.3845L72.6737 8.85872L72.6374 7.38134C72.6314 7.2118 72.6253 7.04831 72.6132 6.87877C72.0743 0.321367 63.3372 -5.08561 52.2871 -11.9155C44.5126 -16.717 35.7028 -22.1664 36.5323 -25.9749C32.8934 -22.124 45.3664 -14.0347 53.6191 -8.68219L53.6131 -8.68825Z" fill="#262626"/>
<path d="M52.7045 -14.4828C65.5893 -7.16849 70.4392 -3.61428 71.9832 1.74427C71.7894 0.817877 71.4746 -0.356775 71.2142 -1.34977C71.1537 -1.55564 71.0931 -1.75543 71.0326 -1.9613C68.9376 -7.41067 61.92 -11.3221 49.7316 -17.7281C41.1156 -22.2632 38.2758 -24.0373 36.526 -25.9749C37.5311 -23.0927 43.8947 -19.478 52.7045 -14.4767V-14.4828Z" fill="#262626"/>
</g>
</svg>
