<svg width="41" height="29" viewBox="0 0 41 29" fill="none" xmlns="http://www.w3.org/2000/svg">
<g opacity="0.9">
<path d="M24.5198 0.728271C24.6125 0.738203 24.7019 0.748136 24.7946 0.761378C24.7052 0.748136 24.6125 0.738203 24.5198 0.728271Z" fill="#262626"/>
<path d="M30.2437 2.57567L29.7438 2.30753C29.7306 2.3009 29.714 2.29097 29.7008 2.28435C29.6478 2.25787 29.5949 2.23137 29.5419 2.20489C29.575 2.22144 29.6114 2.238 29.6478 2.25456C29.5684 2.21152 29.4889 2.17179 29.4095 2.12876L29.0586 1.96985C29.0884 1.98309 29.1215 1.99965 29.1513 2.01289C28.7209 1.81426 28.2839 1.6355 27.8337 1.47659C25.9103 1.02306 23.9273 0.834354 20.5142 0.778076C26.8405 1.08926 29.0122 1.99303 29.7405 2.30421C29.9094 2.39028 30.0782 2.47967 30.2437 2.57567Z" fill="#262626"/>
<path d="M25.2085 0.576051C24.9602 0.516462 24.7119 0.456874 24.5 0.410527L24.3676 0.384038C23.6393 0.268171 22.1926 0.496601 20.5142 0.784613C20.6599 0.76475 20.8022 0.748196 20.9479 0.731644C23.7254 0.413838 24.5298 0.466808 25.2085 0.579365V0.576051Z" fill="#262626"/>
<path d="M23.1593 0.178709C22.9408 0.148915 22.6693 0.119121 22.4575 0.0959473C22.4575 0.0959473 22.4509 0.0959473 22.4475 0.0959473C22.4078 0.105879 22.4012 0.109192 20.5142 0.781218C22.7058 0.198574 22.9209 0.195261 23.2156 0.18864C23.199 0.18864 23.1792 0.185333 23.1593 0.182023V0.178709Z" fill="#262626"/>
<path d="M21.5074 0.0529587C21.4776 0.0430273 21.4411 0.0297935 21.4113 0.0198621C21.4113 0.0198621 21.408 0.0198621 21.4047 0.0198621C21.1995 0.00993062 21.0737 0.00661732 21.0604 0.00661732C20.9446 0.00661732 20.7989 0 20.6764 0C20.9082 0.00993143 20.9148 0.0165496 21.0207 0.152279C20.9766 0.311182 20.8088 0.520844 20.5175 0.781268C21.4478 0.264833 21.4776 0.165515 21.5107 0.0529587H21.5074Z" fill="#262626"/>
<path d="M2.05502 27.0433C5.6833 35.6109 14.7706 38.8915 17.9817 39.4312C17.9983 39.4312 18.0115 39.4345 18.0281 39.4378C18.1969 39.4576 18.4088 39.4808 18.5743 39.4974L18.912 39.5272C18.912 39.5272 18.9252 39.5272 18.9285 39.5272C17.0349 39.3517 4.01151 35.5082 1.07843 23.6865C1.11153 23.862 1.14133 24.0341 1.17443 24.193C1.39293 25.0173 1.72728 26.0966 2.00867 26.9176C2.02523 26.9606 2.04178 27.0003 2.05502 27.0433Z" fill="#262626"/>
<path d="M19.9613 0.152192C20.4116 0.321027 20.4347 0.420339 20.5142 0.781181C20.8419 0.0429447 20.16 0.0297068 19.5575 0.0197754C19.3456 0.0297068 19.0642 0.0495644 18.8556 0.0661168L18.657 0.0826753C18.9649 0.0628124 19.6071 0.0197734 19.9613 0.152192Z" fill="#262626"/>
<path d="M20.0673 39.5868C20.1434 39.5868 20.2162 39.5901 20.2924 39.5901H20.3255C20.3255 39.5901 20.352 39.5901 20.3619 39.5901C20.448 39.5901 20.5307 39.5901 20.6168 39.5901C20.6896 39.5901 20.7625 39.5901 20.8254 39.5901C20.8287 39.5901 20.832 39.5901 20.8353 39.5901C19.3323 39.5637 -2.17251 31.4133 1.30349 14.8542C1.30349 14.8542 1.30349 14.8542 1.30349 14.8576C1.18431 15.3243 1.06844 15.9533 0.96913 16.4234C0.873127 17.0259 0.793675 17.837 0.727466 18.4428C0.373245 33.2969 18.1008 39.3981 20.0673 39.5868Z" fill="#262626"/>
<path d="M16.8263 0.344337C16.7866 0.350958 16.7436 0.360892 16.7039 0.367513C19.1238 -0.0462966 20.1335 0.549589 20.5175 0.781323C19.8323 0.0265339 18.6405 0.0397734 16.8297 0.344337H16.8263Z" fill="#262626"/>
<path d="M3.23683 10.0671C-5.49952 26.9108 18.9715 38.8021 21.898 39.5403C21.9179 39.5403 21.9377 39.5403 21.9576 39.537L22.0867 39.5271C22.1066 39.5271 22.1264 39.5237 22.1496 39.5204C22.2986 39.5072 22.4773 39.4873 22.6296 39.4741C22.6495 39.4741 22.6693 39.4708 22.6859 39.4675C19.2198 36.8323 15.0023 35.3956 11.662 32.5618C10.0266 31.1747 6.1964 27.9271 3.95851 23.5838C-0.520562 14.8938 3.46525 9.35205 5.42174 6.96851C5.35222 7.04796 5.28602 7.12741 5.21981 7.20355L4.88876 7.59749C4.37232 8.30925 3.72016 9.28584 3.25338 10.0373C3.24676 10.0472 3.24345 10.0572 3.23683 10.0671Z" fill="#262626"/>
<path d="M15.9325 0.532907C15.9325 0.532907 15.9557 0.526286 15.9689 0.522976C15.9391 0.529597 15.9027 0.536217 15.8762 0.542838C15.6577 0.592495 15.373 0.668635 15.1578 0.728224C14.7142 0.850711 14.1283 1.03279 13.6979 1.195C13.4331 1.29432 13.0822 1.42674 12.8239 1.53598C12.5128 1.6684 12.1056 1.86041 11.7977 2.00276C11.4832 2.14842 11.076 2.3636 10.7781 2.53906C10.4272 2.7443 9.99349 3.01245 9.60947 3.26074C5.65345 5.98195 2.53167 10.3485 2.96203 15.2711C3.98166 26.8843 17.1342 34.8493 22.0834 37.8486C23.2266 38.5416 23.8313 39.0227 23.8975 39.292C23.8975 39.292 23.9207 39.2887 23.9306 39.2854C24.2021 39.2357 24.543 39.1629 24.8145 39.1066C24.8244 39.1066 24.8344 39.1033 24.8443 39.1C24.9403 39.0669 25.0098 38.9278 25.076 38.8484C24.8509 38.4147 24.4106 38.1035 22.0304 36.5443C15.906 32.532 9.74189 27.9172 6.1434 21.379C-1.9772 6.61756 13.7707 -1.01971 20.5175 0.777879C19.2099 0.271376 17.6175 0.215098 15.9358 0.529593L15.9325 0.532907Z" fill="#262626"/>
<path d="M22.7785 34.8957C26.5061 37.5308 27.3933 38.1565 26.2148 38.7392C26.228 38.7359 26.2413 38.7325 26.2512 38.7292C26.4333 38.673 26.6385 38.6034 26.8405 38.5372C26.9795 38.4909 27.1152 38.4412 27.251 38.3916C28.9195 37.6169 27.4662 36.5443 23.9902 33.9853C20.1467 31.1549 15.3597 27.6325 11.3011 22.4814C-0.682828 7.27307 12.1089 -0.254949 20.5108 0.781231C10.9634 -1.28782 -9.58139 12.0335 22.7752 34.8957H22.7785Z" fill="#262626"/>
<path d="M24.9701 31.9361C29.3168 35.2697 30.9455 36.5178 28.7871 37.7625C28.8036 37.7559 28.8202 37.746 28.8367 37.7394C29.1976 37.5672 29.6478 37.3288 29.9954 37.1534C31.6771 36.1702 31.0051 35.0281 30.0285 33.9422C25.9401 29.397 20.5109 26.3844 16.3231 21.9517C2.84618 7.68353 11.8871 0.585865 20.5142 0.784494C11.7216 -0.0166419 -3.97671 9.74264 24.9701 31.9394V31.9361Z" fill="#262626"/>
<path d="M28.3302 29.1786C32.4716 32.4957 33.9481 34.2801 31.7367 36.0743C32.1141 35.8095 32.5941 35.4321 32.9715 35.1441C33.1602 34.9885 33.3588 34.8197 33.5475 34.6508C35.2657 33.0783 34.3023 32.2276 22.7421 22.0445C5.98451 7.28642 13.5357 2.07572 18.998 0.986572C14.0455 1.9102 0.234209 6.66735 28.3302 29.1786Z" fill="#262626"/>
<path d="M20.2924 0.797852C19.8852 0.834267 19.4482 0.897168 18.9947 0.986551C19.5773 0.877305 20.0342 0.821025 20.2924 0.797852Z" fill="#262626"/>
<path d="M20.5142 0.78125C20.5142 0.78125 20.4215 0.787867 20.2924 0.797798C20.3652 0.791177 20.4413 0.78456 20.5142 0.78125Z" fill="#262626"/>
<path d="M27.5589 22.6835C34.4281 28.212 37.007 30.7412 34.7724 33.4889C34.789 33.4723 34.8022 33.4591 34.8155 33.4425C35.1664 33.0651 35.5901 32.5653 35.9212 32.1845C35.9278 32.1746 35.9344 32.168 35.941 32.1581C37.8975 29.5957 36.0271 26.8977 27.9628 20.631C6.92138 4.28384 18.0678 1.23158 20.5175 0.784668C18.7332 1.00978 3.77311 3.54229 27.5622 22.6835H27.5589Z" fill="#262626"/>
<path d="M28.9791 18.2605C36.7521 24.0671 38.8906 27.0366 37.4373 30.0061C37.4969 29.9068 37.5532 29.8108 37.6095 29.7148L37.6625 29.6221C37.7022 29.5526 37.7386 29.4897 37.775 29.4268L38.2186 28.5727C38.2716 28.4634 38.3246 28.3542 38.3775 28.2483C40.1122 24.2691 33.5376 19.4821 29.1744 16.3074C14.9559 5.96212 16.6178 2.15838 20.5142 0.787842C17.1872 1.65519 11.3475 5.09809 28.9791 18.2672V18.2605Z" fill="#262626"/>
<path d="M29.3565 13.7517C36.1429 18.532 40.2082 21.7299 39.364 25.7191C39.4038 25.5833 39.4468 25.4476 39.4832 25.3152C39.6189 24.8186 39.7547 24.2592 39.8639 23.8122C40.4466 19.8364 36.3416 16.804 29.5981 12.1925C25.1422 9.14352 16.8495 3.46936 20.5142 0.78125C14.7672 3.47267 25.748 11.2093 29.3565 13.7517Z" fill="#262626"/>
<path d="M29.8564 10.2361C37.5036 15.1985 40.1023 17.4496 40.2413 20.866C40.2446 20.7998 40.2513 20.7303 40.2546 20.6641L40.2777 19.8298L40.2579 19.0221C40.2546 18.9294 40.2513 18.84 40.2446 18.7473C39.95 15.1621 35.173 12.2058 29.1314 8.4716C24.8807 5.84639 20.064 2.86696 20.5175 0.784668C18.5279 2.89013 25.3475 7.31293 29.8597 10.2394L29.8564 10.2361Z" fill="#262626"/>
<path d="M29.3598 7.06795C36.4045 11.067 39.0562 13.0103 39.9004 15.94C39.7944 15.4335 39.6223 14.7913 39.4799 14.2484C39.4468 14.1358 39.4137 14.0266 39.3806 13.914C38.2352 10.9346 34.3984 8.79602 27.7344 5.29354C23.0236 2.81399 21.4709 1.84402 20.5142 0.784668C21.0638 2.36046 24.5431 4.33681 29.3598 7.07126V7.06795Z" fill="#262626"/>
<path d="M38.3742 11.3284C38.3444 11.2688 38.318 11.2093 38.2882 11.1497L37.8876 10.3585L37.6194 9.88506C37.5698 9.79899 37.5201 9.71292 37.4672 9.62685C36.5601 8.21658 34.9181 7.16716 32.5677 5.93567C28.6845 3.90303 24.5199 2.5358 20.5175 0.78125C21.7656 1.57576 24.0597 2.6285 26.963 3.96262C34.6665 7.50152 37.0401 9.03096 38.3775 11.3284H38.3742Z" fill="#262626"/>
<path d="M35.9708 7.47835C35.9344 7.432 35.9013 7.39228 35.8616 7.34262C35.8384 7.31282 35.8152 7.28634 35.7888 7.25654C35.759 7.22013 35.7292 7.18372 35.6994 7.1473C35.4081 6.80963 35.0803 6.44216 34.8188 6.14753C33.0973 4.38305 28.2839 2.57884 20.5142 0.78125C32.2995 4.31353 34.5804 5.96877 35.9708 7.47835Z" fill="#262626"/>
<path d="M32.7398 4.26387C32.4518 4.04207 32.1373 3.81033 31.8658 3.6117C31.8096 3.57198 31.7533 3.53557 31.697 3.49585C29.8266 2.31732 26.0692 1.40362 20.5142 0.78125C23.9704 1.29437 30.151 2.45304 32.9848 4.4625C32.902 4.39298 32.8193 4.32677 32.7398 4.26387Z" fill="#262626"/>
<path d="M24.8973 0.777986C25.3575 0.840885 25.8143 0.923647 26.2579 1.02627C27.0491 1.15869 27.1484 1.18849 27.7509 1.38381C27.7344 1.37719 27.7145 1.36726 27.698 1.36395C27.3967 1.24477 26.9862 1.10572 26.6783 0.996479H26.6717C25.9467 0.761435 25.0959 0.731646 24.1094 0.69192C24.1557 0.695231 24.1988 0.701845 24.2451 0.705155C23.7419 0.658808 23.2288 0.632324 22.7091 0.632324C21.9112 0.67205 21.8053 0.678678 20.5142 0.784613C22.5667 0.698541 23.4937 0.71509 24.8973 0.7813V0.777986ZM24.5166 0.731645C24.6093 0.741576 24.6987 0.751509 24.7914 0.764751C24.702 0.751509 24.6093 0.741576 24.5166 0.731645Z" fill="#262626"/>
</g>
</svg>
